<?xml version="1.0" standalone="no"?>
<!DOCTYPE svg PUBLIC "-//W3C//DTD SVG 20010904//EN"
 "http://www.w3.org/TR/2001/REC-SVG-20010904/DTD/svg10.dtd">
<svg version="1.0" xmlns="http://www.w3.org/2000/svg"
 width="512.000000pt" height="512.000000pt" viewBox="0 0 512.000000 512.000000"
 preserveAspectRatio="xMidYMid meet">

<g transform="translate(0.000000,512.000000) scale(0.100000,-0.100000)"
fill="#000000" stroke="none">
<path d="M3910 4710 c-282 -28 -524 -198 -652 -457 -32 -64 -45 -82 -57 -78
-9 4 -78 16 -153 28 l-138 21 -5 36 c-18 119 -54 191 -132 260 -95 83 -252
109 -375 61 -127 -50 -213 -164 -233 -312 l-6 -47 -57 -6 c-129 -16 -367 -71
-519 -121 -539 -178 -937 -498 -1126 -906 -97 -207 -137 -400 -137 -654 l0
-120 -47 -22 c-108 -49 -191 -154 -239 -299 -26 -81 -29 -101 -28 -224 1 -118
4 -145 27 -216 49 -148 133 -250 252 -306 68 -31 75 -32 226 -36 l157 -4 6
-72 c21 -221 100 -399 245 -550 135 -140 282 -224 460 -260 85 -18 125 -19
613 -17 394 1 409 2 428 21 27 27 26 81 -1 106 -20 18 -45 19 -489 21 -513 2
-538 5 -666 63 -155 70 -287 197 -360 345 -81 165 -78 135 -82 810 -2 393 0
633 8 695 50 436 353 794 773 914 150 43 250 48 1000 44 l699 -3 19 -25 c11
-14 42 -51 70 -82 l49 -57 0 -136 0 -137 29 -29 c16 -16 40 -29 52 -29 12 0
89 27 171 60 135 55 155 60 223 60 l75 0 44 -56 c55 -71 127 -208 159 -304 51
-158 52 -169 52 -860 0 -645 0 -645 -23 -725 -63 -216 -216 -394 -416 -485
-129 -59 -156 -61 -648 -60 -378 0 -453 -2 -477 -14 -47 -25 -55 -69 -18 -110
l22 -26 465 -1 c511 0 541 3 688 62 167 67 345 220 436 376 59 99 103 236 118
364 l12 99 122 0 c188 0 270 24 360 103 64 56 119 144 151 241 23 70 26 98 27
211 0 147 -14 217 -67 324 -40 81 -125 170 -193 201 l-51 24 -6 190 c-5 199
-24 313 -77 461 -19 56 -20 61 -4 70 228 136 363 300 424 515 31 108 37 279
15 395 -60 319 -296 569 -609 646 -64 16 -125 21 -291 24 -115 2 -248 0 -295
-5z m457 -150 c265 -28 477 -196 567 -449 28 -79 30 -96 31 -221 0 -114 -4
-147 -23 -210 -66 -211 -224 -374 -433 -445 -84 -29 -85 -29 -404 -35 l-320
-6 -95 -42 -95 -41 -2 92 c-2 51 -5 101 -8 113 -2 11 -32 49 -65 84 -149 156
-215 353 -190 566 19 168 74 280 199 404 120 119 231 172 396 190 104 11 337
11 442 0z m-1724 -132 c51 -28 97 -92 107 -149 25 -132 -79 -258 -213 -259
-164 -1 -271 169 -199 315 55 112 193 154 305 93z m-414 -398 c38 -58 128
-126 189 -143 l42 -11 0 -147 0 -147 -357 -5 c-400 -5 -469 -14 -646 -82 -406
-157 -713 -538 -768 -952 -6 -48 -13 -94 -15 -100 -2 -9 -32 -13 -105 -13
l-102 0 6 163 c9 241 48 396 147 585 65 125 132 215 240 323 281 283 717 484
1214 559 67 10 121 19 122 19 0 1 15 -21 33 -49z m858 14 l91 -16 0 -131 c-1
-126 17 -250 44 -299 8 -17 -9 -18 -302 -18 l-310 0 0 148 0 147 43 13 c64 20
141 77 182 136 l36 53 62 -8 c34 -5 103 -16 154 -25z m1452 -1069 c43 -131 61
-257 61 -413 l0 -133 -102 3 -103 3 -8 69 c-16 151 -83 344 -165 479 l-41 67
87 1 c48 0 110 4 137 9 108 16 100 21 134 -85z m-3869 -1105 l0 -410 -123 0
c-80 0 -141 5 -174 15 -273 81 -303 649 -41 779 49 24 61 26 195 26 l143 0 0
-410z m4085 375 c161 -100 214 -404 108 -615 -66 -134 -139 -170 -340 -170
l-123 0 0 411 0 410 153 -3 c151 -3 155 -4 202 -33z"/>
<path d="M3720 4130 c-33 -33 -30 -75 6 -107 25 -23 26 -23 370 -23 l345 0 24
25 c32 31 33 74 2 103 -23 22 -28 22 -375 22 -339 0 -353 -1 -372 -20z"/>
<path d="M3727 3788 c-38 -30 -38 -95 1 -124 13 -11 113 -13 475 -14 l458 0
24 25 c32 31 32 69 0 100 l-24 25 -459 0 c-351 0 -462 -3 -475 -12z"/>
<path d="M1465 2736 c-179 -59 -305 -189 -351 -361 -17 -63 -20 -944 -3 -1015
37 -163 169 -304 336 -362 l68 -23 1020 0 1020 0 68 23 c130 45 237 136 293
251 53 108 54 121 54 617 0 506 0 509 -63 627 -45 86 -124 160 -225 210 l-85
42 -458 3 c-450 3 -458 3 -479 -18 -25 -25 -26 -71 -1 -101 l19 -24 444 -5
443 -5 56 -28 c67 -32 142 -109 172 -175 22 -46 22 -55 22 -527 l0 -480 -26
-55 c-35 -75 -98 -136 -177 -173 l-67 -32 -980 -3 c-635 -2 -997 1 -1027 8
-114 24 -209 98 -256 198 l-27 57 -3 466 c-3 459 -2 468 19 525 30 81 122 172
202 202 56 21 72 22 471 22 426 0 466 3 486 40 16 30 12 68 -10 90 -19 19 -33
20 -467 19 -342 0 -458 -3 -488 -13z"/>
<path d="M1830 2337 c-95 -27 -185 -115 -210 -207 -15 -52 -12 -140 6 -193 19
-55 81 -128 137 -162 115 -67 285 -40 374 58 57 64 78 120 78 212 0 67 -5 88
-27 130 -70 132 -221 201 -358 162z m168 -164 c68 -51 89 -130 53 -200 -54
-108 -200 -114 -269 -12 -20 28 -23 44 -20 89 5 66 27 101 83 130 48 25 114
22 153 -7z"/>
<path d="M3105 2337 c-94 -32 -158 -88 -197 -172 -34 -75 -32 -181 5 -257 92
-186 347 -229 492 -82 144 147 104 400 -79 489 -64 31 -163 41 -221 22z m151
-158 c147 -71 95 -289 -69 -289 -65 0 -109 28 -138 86 -27 56 -22 110 14 158
50 65 119 81 193 45z"/>
<path d="M2276 1569 c-19 -15 -26 -30 -26 -56 0 -65 107 -140 233 -164 142
-26 350 70 350 162 0 35 -40 79 -71 79 -10 0 -41 -17 -69 -39 -101 -76 -195
-76 -303 0 -64 45 -77 47 -114 18z"/>
</g>
</svg>
